<svg width="590" height="564" viewBox="0 0 590 564" fill="none" xmlns="http://www.w3.org/2000/svg">
<g opacity="0.1">
<path d="M322.931 329.527C322.931 329.527 223.683 268.649 197.932 198.999C191.754 181.508 189.324 163.031 190.782 144.645C192.24 126.258 197.557 108.329 206.425 91.9023C215.292 75.4751 227.531 60.8778 242.431 48.9606C257.33 37.0433 274.591 28.0442 293.21 22.4872C323.133 13.3031 355.694 15.7184 383.731 29.2018C411.768 42.6852 432.986 66.1325 442.716 94.3864C446.575 105.578 448.061 117.377 447.09 129.11C446.119 140.844 442.71 152.282 437.057 162.771C431.405 173.26 423.619 182.596 414.146 190.244C404.673 197.892 393.696 203.703 381.845 207.346C372.361 210.259 362.364 211.38 352.422 210.645C342.48 209.909 332.789 207.332 323.902 203.059C315.015 198.787 307.106 192.903 300.628 185.745C294.149 178.586 289.227 170.292 286.143 161.337C281.192 146.868 282.515 131.135 289.821 117.585C297.128 104.034 309.823 93.7693 325.128 89.0383C337.37 85.3126 350.676 86.3219 362.132 91.845C373.587 97.3681 382.255 106.954 386.238 118.503C389.417 127.756 388.577 137.822 383.903 146.49C379.228 155.159 371.101 161.721 361.307 164.736" stroke="#7C4666" stroke-width="32.33" stroke-linecap="round" stroke-linejoin="round"/>
<path d="M322.931 329.527C322.931 329.527 316.738 441.112 265.738 496.967C252.792 510.76 237.07 521.983 219.488 529.985C201.905 537.987 182.813 542.607 163.322 543.577C143.831 544.547 124.331 541.847 105.955 535.634C87.5793 529.421 70.6955 519.82 56.286 507.388C32.8949 487.514 18.8227 459.679 17.1649 430.008C15.5072 400.336 26.3997 371.258 47.4463 349.17C55.7833 340.419 65.8643 333.305 77.1134 328.234C88.3626 323.162 100.56 320.233 113.008 319.614C125.456 318.994 137.912 320.696 149.663 324.622C161.415 328.549 172.232 334.623 181.497 342.498C188.911 348.795 194.938 356.41 199.236 364.907C203.533 373.405 206.015 382.618 206.541 392.022C207.067 401.425 205.626 410.834 202.301 419.712C198.976 428.589 193.831 436.761 187.161 443.761C176.362 455.043 161.27 461.824 145.188 462.62C129.107 463.416 113.346 458.163 101.358 448.01C96.612 443.98 92.7542 439.106 90.0046 433.667C87.2551 428.229 85.6678 422.332 85.3335 416.313C84.9992 410.295 85.9245 404.273 88.0564 398.593C90.1884 392.912 93.4851 387.684 97.7583 383.208C101.172 379.624 105.3 376.711 109.907 374.634C114.513 372.557 119.508 371.358 124.606 371.105C129.703 370.852 134.804 371.551 139.616 373.16C144.427 374.769 148.856 377.258 152.649 380.484" stroke="#7C4666" stroke-width="32.33" stroke-linecap="round" stroke-linejoin="round"/>
<path d="M322.93 329.528C322.93 329.528 428.37 278.771 505.122 292.541C524.245 296.229 542.401 303.472 558.532 313.848C574.663 324.224 588.447 337.527 599.082 352.981C609.717 368.435 616.991 385.732 620.479 403.866C623.968 422 623.602 440.607 619.402 458.606C616.169 473.004 609.963 486.66 601.139 498.792C592.315 510.924 581.046 521.296 567.975 529.315C554.904 537.333 540.289 542.841 524.963 545.524C509.637 548.207 493.902 548.012 478.656 544.95C466.463 542.506 454.9 537.818 444.626 531.153C434.352 524.489 425.569 515.979 418.779 506.109C411.988 496.239 407.323 485.203 405.05 473.631C402.777 462.058 402.94 450.176 405.53 438.663C409.711 420.072 421.537 403.809 438.411 393.448C455.284 383.087 475.823 379.476 495.515 383.408C511.26 386.594 525.028 395.541 533.803 408.29C542.578 421.04 545.645 436.553 542.333 451.434C539.653 463.34 532.075 473.753 521.265 480.384C510.456 487.015 497.3 489.322 484.69 486.796C474.623 484.752 465.826 479.02 460.229 470.859C454.632 462.697 452.693 452.772 454.837 443.262" stroke="#7C4666" stroke-width="32.33" stroke-linecap="round" stroke-linejoin="round"/>
</g>
</svg>
