<svg xmlns="http://www.w3.org/2000/svg" fill="none" viewBox="0 0 250 250" height="250" width="250" id="Lines-Quote-Right--Streamline-Variable-Scribbles.svg"><desc>Lines Quote Right Streamline Element: https://streamlinehq.com</desc><path stroke="#000000" stroke-linecap="round" stroke-linejoin="round" stroke-miterlimit="1.5" d="M166.33055555555555 204.9777777777778c45.19444444444444 -7.797222222222222 71.61111111111111 -52.49999999999999 73.0111111111111 -95.71666666666665 0.9722222222222221 -29.991666666666667 -13.3 -64.63888888888889 -48.18055555555555 -64.23611111111111 -7.449999999999999 0.08888888888888889 -13.741666666666667 3.0444444444444447 -20.458333333333332 5.96111111111111 -5.9833333333333325 2.5944444444444446 -11.191666666666666 6.816666666666667 -15.483333333333333 11.722222222222221 -7.905555555555556 9.041666666666666 -13.825000000000001 20.416666666666664 -12.377777777777778 32.75833333333333 3.3388888888888886 28.40555555555556 35.52777777777777 35.330555555555556 54.83888888888889 22.375 1.9277777777777776 31.869444444444447 -9.708333333333334 64.57222222222222 -31.349999999999998 87.1361111111111Z" clip-rule="evenodd" stroke-width="4"></path><path stroke="#000000" stroke-linecap="round" stroke-linejoin="round" stroke-miterlimit="1.5" d="M31.88888888888889 203.95833333333331c51.75277777777778 0 74.03888888888889 -51.480555555555554 75.43888888888888 -94.69722222222222 0.9694444444444443 -29.991666666666667 -13.302777777777777 -64.63888888888889 -48.18333333333333 -64.23611111111111 -7.449999999999999 0.08888888888888889 -13.741666666666667 3.0444444444444447 -20.458333333333332 5.96111111111111 -5.980555555555555 2.5944444444444446 -11.191666666666666 6.816666666666667 -15.483333333333333 11.722222222222221 -7.905555555555556 9.041666666666666 -13.825000000000001 20.416666666666664 -12.375 32.75833333333333 3.333333333333333 28.40555555555556 40.044444444444444 33.14722222222222 59.35833333333333 20.191666666666666 1.9277777777777776 31.869444444444447 -16.65 65.7361111111111 -38.294444444444444 88.3Z" clip-rule="evenodd" stroke-width="4"></path></svg>