<svg xmlns="http://www.w3.org/2000/svg" fill="none" viewBox="0 0 250 250" height="250" width="250" id="Abstract-Star-Wink-Sparkle-Line-8--Streamline-Variable-Scribbles.svg"><desc>Abstract Star Wink Sparkle Line 8 Streamline Element: https://streamlinehq.com</desc><path stroke="#000000" stroke-linecap="round" stroke-linejoin="round" stroke-miterlimit="1.5" d="M107.71071428571429 146.64464285714286c4.703571428571428 -15.314285714285717 7.892857142857143 -29.64821428571429 11.125000000000002 -48.62857142857143 -0.17500000000000002 0.29464285714285715 22.91071428571429 -5.023214285714286 33.83214285714286 -9.133928571428573 -12.744642857142857 -5.116071428571429 -35.81428571428572 -10.380357142857143 -35.605357142857144 -10.055357142857144 -0.6392857142857143 -11.8 -4.946428571428572 -26.369642857142857 -11.8375 -48.46964285714286 -2.9571428571428573 16.580357142857142 -7.985714285714287 33.94285714285714 -10.151785714285714 50.642857142857146 -13.339285714285715 3.4714285714285715 -24.292857142857144 8.57857142857143 -37.0375 13.951785714285714 15.664285714285716 3.3357142857142863 23.464285714285715 4.217857142857143 38.183928571428574 5.683928571428571C100.125 118.08928571428571 103.26785714285714 131.67857142857142 107.70892857142857 146.64285714285717Z" clip-rule="evenodd" stroke-width="4"></path><path stroke="#000000" stroke-linecap="round" stroke-linejoin="round" stroke-miterlimit="1.5" d="M152.21428571428572 220.51428571428573c4.05 -13.183928571428572 6.705357142857143 -22.81607142857143 9.4875 -39.153571428571425 -0.15000000000000002 0.25535714285714284 21.525000000000002 -7.678571428571429 30.923214285714288 -11.214285714285715 -13.471428571428572 -1.7035714285714285 -31.91071428571429 -4.237500000000001 -31.732142857142858 -3.958928571428572 -2.530357142857143 -10.398214285714287 -4.885714285714286 -26.742857142857147 -10.81607142857143 -45.76428571428572 -2.544642857142857 14.271428571428572 -7.023214285714285 30.546428571428574 -8.885714285714286 44.92142857142857 -11.483928571428573 2.9857142857142858 -20.760714285714286 6.05 -31.73035714285714 10.675 13.482142857142858 2.871428571428572 21.998214285714287 5.644642857142857 33.105357142857144 8.158928571428572 3.3607142857142858 15.023214285714287 5.826785714285714 23.45357142857143 9.65 36.33571428571429Z" clip-rule="evenodd" stroke-width="4"></path><path stroke="#000000" stroke-linecap="round" stroke-linejoin="round" stroke-miterlimit="1.5" d="M155.85357142857146 34.221428571428575c0.058928571428571434 3.923214285714286 -0.2285714285714286 8.033928571428572 0.1517857142857143 11.933928571428572" stroke-width="4"></path><path stroke="#000000" stroke-linecap="round" stroke-linejoin="round" stroke-miterlimit="1.5" d="M144.66607142857146 55.32142857142858c2.1142857142857143 0.03571428571428572 4.285714285714286 -0.3107142857142857 6.392857142857143 -0.14821428571428574" stroke-width="4"></path><path stroke="#000000" stroke-linecap="round" stroke-linejoin="round" stroke-miterlimit="1.5" d="M157.23214285714286 60.98214285714286c-0.5517857142857143 3.273214285714286 -0.4303571428571429 6.6125 -0.44642857142857145 9.928571428571429" stroke-width="4"></path><path stroke="#000000" stroke-linecap="round" stroke-linejoin="round" stroke-miterlimit="1.5" d="M163.72857142857143 53.283928571428575c2.9357142857142855 0.25535714285714284 6.05 -0.7303571428571428 8.903571428571428 -0.04285714285714286" stroke-width="4"></path><path stroke="#000000" stroke-linecap="round" stroke-linejoin="round" stroke-miterlimit="1.5" d="M74.98928571428571 151.6107142857143c0.06428571428571428 3.9035714285714285 0.21785714285714286 7.832142857142858 0.8857142857142858 11.685714285714285" stroke-width="4"></path><path stroke="#000000" stroke-linecap="round" stroke-linejoin="round" stroke-miterlimit="1.5" d="M64.9 172.64821428571432c1.6464285714285716 -0.1785714285714286 3.285714285714286 -0.4071428571428572 4.935714285714286 -0.5607142857142857" stroke-width="4"></path><path stroke="#000000" stroke-linecap="round" stroke-linejoin="round" stroke-miterlimit="1.5" d="M85.70357142857144 169.15178571428572c2.871428571428572 0.03214285714285714 5.819642857142857 -0.4642857142857143 8.678571428571429 -0.24285714285714288" stroke-width="4"></path><path stroke="#000000" stroke-linecap="round" stroke-linejoin="round" stroke-miterlimit="1.5" d="M78.05714285714286 179.53214285714287c1.4517857142857142 6.689285714285715 1.8035714285714286 13.6125 3.375 20.28035714285714" stroke-width="4"></path></svg>