<?xml version="1.0" encoding="UTF-8"?><svg id="Layer_2" xmlns="http://www.w3.org/2000/svg" viewBox="0 0 232.04 232.04"><defs><style>.cls-1{fill:#000;stroke-width:0px;}</style></defs><g id="Layer_1-2"><path class="cls-1" d="M232.02,113.82c-.56-30-12.66-58.32-34.07-79.73S148.23.58,118.22.02c-31.84-.58-61.75,11.47-84.24,33.96C11.49,56.47-.57,86.39.02,118.22c.56,30,12.66,58.32,34.07,79.73s49.73,33.51,79.73,34.07c.74.01,1.49.02,2.23.02,31,0,60.05-12.02,82.01-33.98,22.49-22.49,34.55-52.41,33.96-84.24ZM9.95,116.02c0-46.19,30.46-87.43,74.4-101.21-9.94,8.18-16.22,19.96-17.37,32.73-1.16,12.86,3.09,25.11,11.95,34.48,12.46,13.17,27.88,16.99,44.6,11.05,15.71-5.58,24.53-17.23,25.5-33.71.83-13.98-5.05-25.04-17-31.99-11.39-6.63-23.07-6.19-33.79,1.25-9.12,6.33-13.15,15.53-11.65,26.59,1.28,9.48,6.63,16.26,15.47,19.6,7.08,2.67,14.69,1.68,20.36-2.66,5.27-4.03,7.92-10.17,7.28-16.84-.44-4.57-3.04-8.74-6.96-11.15-3.51-2.16-7.57-2.6-11.15-1.2-4.73,1.84-7.36,6.52-5.86,10.42.77,2.01,2.09,2.57,3.07,2.69,1.79.22,3.6-.92,4.41-2.1.84-1.22,1.39-1.84,1.64-1.84,1.28.1,2.67.69,3.38,1.44,1.07,1.12,1.56,2.65,1.4,4.32-.22,2.28-1.62,4.54-3.74,6.03-3.01,2.12-6.84,2.47-10.51.96-4.26-1.75-7.41-5.67-8.24-10.24-1.05-5.79.83-11.54,5.15-15.76,4.58-4.48,11.11-6.38,17.47-5.09,7.81,1.6,14.04,6.8,17.08,14.28,3.22,7.93,2.2,17-2.74,24.26-5.14,7.56-13.47,12.16-22.85,12.62-9.98.48-19.36-3.68-25.79-11.4-9.55-11.49-10.75-27.36-3.05-40.44,8.13-13.8,24.69-21.39,40.27-18.45,12.76,2.41,23.65,10.2,29.88,21.37,6.41,11.49,7.28,25.36,2.4,38.04-4.48,11.64-13.32,20.87-24.88,25.99-12.39,5.48-26.4,5.72-39.45.65-6.73-2.61-12.82-4.84-19.21-5.68-13.7-1.79-27.42,1.34-38.65,8.82-10.22,6.81-17.82,16.75-21.57,28.15-.82-5.36-1.23-10.72-1.23-15.98ZM116.02,222.09c-24.19,0-47.75-8.36-66.58-23.58,18.34,3.41,34.12-2.67,45.7-17.61,10.66-13.76,11.7-33.08,2.58-48.08-8.46-13.9-24.38-21.1-40.58-18.35-12.41,2.11-22.49,10.45-26.95,22.32-4.21,11.17-2.37,23.19,4.92,32.15,7.19,8.84,16.91,12.48,28.12,10.51,9.62-1.68,16.49-7.45,19.88-16.68,2.82-7.69,1.56-15.91-3.39-21.97-4.57-5.61-11.62-8.33-18.83-7.25-6.16.92-10.55,4.48-12.72,10.3-1.85,4.97-1.06,9.62,2.29,13.44,2.17,2.48,5.45,3.85,8.61,3.58,2.4-.21,4.33-1.33,5.44-3.16.52-.85,1.02-2.77.18-4.3-.46-.84-1.51-1.85-3.87-1.88-.19,0-.4,0-.62,0-.57,0-1.77.01-1.97-.19-1.09-1.18-.93-2.41-.7-3.48.28-1.26,1.13-2.4,2.42-3.21,1.69-1.07,3.87-1.43,5.83-.98,2.66.62,4.97,2.32,6.52,4.81,1.68,2.72,2.22,6.05,1.49,9.15-1.79,7.53-9.83,12.93-17.56,11.8-8.18-1.19-13.7-5.7-16.4-13.39-2.87-8.18-1.34-15.81,4.53-22.69,7.32-8.55,19.13-11.29,30.1-6.99,11.39,4.47,19.76,18.64,18.67,31.59-.94,11.06-6.51,19.71-16.57,25.7-12.3,7.33-25.44,7.22-37.98-.3-12.11-7.27-19.37-20.16-19.42-34.5-.05-15.19,7.74-29.02,20.84-37.01,13.72-8.37,30.65-9.04,45.29-1.82,15.17,7.49,25.29,22.02,27.08,38.87,3.26,30.68,25.99,52.51,55.28,53.1,3.93.07,7.98-.33,12.03-1.2-18.5,13.94-40.45,21.3-63.64,21.3ZM219.38,139.91c-3.48-15.49-14.48-28.04-29.45-33.57-14.18-5.24-29.66-3.11-41.39,5.7-12.1,9.08-17.83,21.56-16.56,36.08,1.34,15.26,9.34,26.28,23.15,31.86,12.71,5.14,24.8,3.28,34.96-5.38,9.7-8.26,13.21-18.96,10.15-30.94-2.8-10.99-9.98-17.97-20.76-20.19-9.69-1.99-17.96.96-23.91,8.53-4.28,5.45-5.59,12.52-3.52,18.92,1.91,5.89,6.34,10.23,12.15,11.89,3.91,1.12,8.12.58,11.56-1.49,3.22-1.93,5.4-4.95,6.16-8.49.68-3.22-.41-6.73-2.8-8.94-1.88-1.74-4.23-2.37-6.44-1.73-.84.24-2.32,1.18-2.72,2.65-.21.76-.2,1.94,1.05,3.3,1.04,1.12,1.49,2.13,1.3,2.92-.18.74-.92,1.36-2.2,1.84-2.91,1.09-6.65-1.06-8-4.6-1.04-2.73-.73-5.87.88-8.61,1.87-3.2,5.22-5.45,8.95-6,5.28-.78,10.43,1.09,14.14,5.14,4.02,4.39,5.58,10.54,4.16,16.46-1.8,7.53-7.4,13.41-14.99,15.73-8.41,2.57-17.38.48-24.01-5.6-8.96-8.22-11.48-21.38-6.28-32.73,5.55-12.13,19.06-19.91,32.11-18.48,11.23,1.23,21.12,7.25,27.15,16.54,6.04,9.31,7.51,20.86,4.04,31.7-5.15,16.04-16.65,25.85-33.26,28.38-18.35,2.79-33.65-4.11-44.26-19.96-6.89-10.29-9.43-22.67-7.15-34.85,2.28-12.18,9.18-23.1,19.43-30.76,15.23-11.38,23.54-25.41,25.41-42.88,1.92-18.04-5.78-35.93-20.21-47.36,43.64,13.94,73.87,55.09,73.87,101.04,0,8.05-.91,16.07-2.72,23.88Z"/></g></svg>