<?xml version="1.0" encoding="UTF-8"?><svg id="Layer_2" xmlns="http://www.w3.org/2000/svg" viewBox="0 0 105.03 7.03"><defs><style>.cls-1{fill:#fff;stroke-width:0px;}</style></defs><g id="Layer_1-2"><path class="cls-1" d="M48.26,7.03c-.45,0-.89-.07-1.32-.21-1.4-.45-2.35-1.55-2.62-3-.32-1.73.83-3.39,2.56-3.71.68-.12,1.37.02,1.94.42.57.39.95.99,1.08,1.67.21,1.15-.56,2.26-1.71,2.47-.13.02-.25-.06-.27-.19s.06-.25.19-.27c.9-.16,1.5-1.03,1.33-1.93-.1-.56-.42-1.05-.88-1.37-.47-.32-1.03-.45-1.59-.34-1.48.27-2.46,1.69-2.19,3.17.23,1.28,1.07,2.24,2.3,2.64,1.33.43,2.84.09,3.85-.86.61-.58.94-1.32,1.3-2.1.31-.67.62-1.36,1.13-1.95,1.06-1.24,2.79-1.75,4.39-1.32,1.49.4,2.54,1.55,2.81,3.06.15.84-.03,1.68-.51,2.38s-1.21,1.17-2.05,1.32c-1.41.26-2.76-.68-3.02-2.09-.21-1.15.56-2.26,1.71-2.47.13-.02.25.06.27.19.02.13-.06.25-.19.27-.9.16-1.5,1.03-1.33,1.93.21,1.16,1.32,1.92,2.48,1.71.71-.13,1.34-.53,1.75-1.13.41-.6.57-1.32.44-2.04-.25-1.35-1.15-2.34-2.48-2.7-1.43-.39-2.97.07-3.92,1.17-.46.54-.75,1.17-1.06,1.84-.36.79-.73,1.6-1.4,2.24-.8.76-1.89,1.18-2.99,1.18Z"/><path class="cls-1" d="M103.85,3.49h-43.15c-.13,0-.23-.1-.23-.23s.1-.23.23-.23h43.15c.13,0,.23.1.23.23s-.1.23-.23.23Z"/><path class="cls-1" d="M44.22,3.49H1.07c-.13,0-.23-.1-.23-.23s.1-.23.23-.23h43.15c.13,0,.23.1.23.23s-.1.23-.23.23Z"/><circle class="cls-1" cx="48.09" cy="4.3" r=".46"/><path class="cls-1" d="M57.14,2.74c0,.26-.21.46-.46.46s-.46-.21-.46-.46.21-.46.46-.46.46.21.46.46Z"/><circle class="cls-1" cx="103.96" cy="3.25" r="1.07"/><circle class="cls-1" cx="1.07" cy="3.25" r="1.07"/></g></svg>