<svg width="269" height="39" viewBox="0 0 269 39" fill="none" xmlns="http://www.w3.org/2000/svg">
<path d="M8.36719 0H12.4014L20.644 38.4492H15.5142L14.0698 30.9536H6.44971L4.98047 38.4492H0L8.36719 0ZM13.3228 26.9443L12.1772 20.8184C11.4136 16.6514 10.791 12.2021 10.3096 7.4707C10.0771 9.77832 9.77832 12.1191 9.41309 14.4932C9.04785 16.8506 8.61621 19.3574 8.11816 22.0137L7.17188 26.9443H13.3228ZM23.452 0H28.6317V34.0664H37.0985V38.4492H23.452V0ZM40.0808 0H45.2605V34.0664H53.7273V38.4492H40.0808V0ZM67.0132 0H73.3882C75.3306 0 76.9658 0.21582 78.294 0.647461C79.5225 1.0625 80.6182 1.80127 81.5811 2.86377C83.0254 4.45752 84.0547 6.53271 84.669 9.08936C85.2832 11.563 85.5904 15.1074 85.5904 19.7227C85.5904 23.9561 85.25 27.4092 84.5694 30.082C83.9053 32.6387 82.8096 34.5894 81.2822 35.9341C79.4063 37.6108 76.0445 38.4492 71.1968 38.4492H67.0132V0ZM72.1929 33.917C75.3472 33.917 77.4556 32.9624 78.5181 31.0532C79.6138 29.144 80.1616 25.4336 80.1616 19.9219C80.1616 13.9951 79.6387 9.91943 78.5928 7.69482C77.5469 5.47021 75.6294 4.35791 72.8404 4.35791H72.1929V33.917ZM95.6947 0H99.7289L107.972 38.4492H102.842L101.397 30.9536H93.7772L92.308 38.4492H87.3275L95.6947 0ZM100.65 26.9443L99.5048 20.8184C98.7411 16.6514 98.1186 12.2021 97.6371 7.4707C97.4047 9.77832 97.1059 12.1191 96.7406 14.4932C96.3754 16.8506 95.9437 19.3574 95.4457 22.0137L94.4994 26.9443H100.65ZM105.924 0H111.402L113.942 8.36719C114.025 8.61621 114.108 8.89014 114.191 9.18896C114.274 9.48779 114.374 9.81152 114.49 10.1602C115.436 13.1816 116.084 15.7217 116.432 17.7803C116.731 15.7217 116.98 14.2856 117.179 13.4722L117.976 10.0356L118.275 8.69092L120.417 0H125.821L119.122 21.9141V38.4492H113.942V21.9141L105.924 0ZM138.758 0H143.938V38.4492H138.758V0ZM159.913 0H166.288C168.23 0 169.866 0.21582 171.194 0.647461C172.422 1.0625 173.518 1.80127 174.481 2.86377C175.925 4.45752 176.954 6.53271 177.569 9.08936C178.183 11.563 178.49 15.1074 178.49 19.7227C178.49 23.9561 178.15 27.4092 177.469 30.082C176.805 32.6387 175.709 34.5894 174.182 35.9341C172.306 37.6108 168.944 38.4492 164.096 38.4492H159.913V0ZM165.093 33.917C168.247 33.917 170.355 32.9624 171.418 31.0532C172.513 29.144 173.061 25.4336 173.061 19.9219C173.061 13.9951 172.538 9.91943 171.492 7.69482C170.447 5.47021 168.529 4.35791 165.74 4.35791H165.093V33.917ZM183.415 0H190.238C193.06 0 195.16 0.672363 196.538 2.01709C198.281 3.76025 199.153 6.4248 199.153 10.0107C199.153 12.7666 198.688 14.9829 197.758 16.6597C196.845 18.3198 195.534 19.3491 193.824 19.7476L200.896 38.4492H195.642L188.594 19.623V38.4492H183.415V0ZM188.594 17.0332C190.603 17.0332 192.023 16.5684 192.853 15.6387C193.683 14.709 194.098 13.1401 194.098 10.9321C194.098 9.73682 194.007 8.71582 193.824 7.86914C193.658 7.02246 193.384 6.3335 193.002 5.80225C192.637 5.271 192.155 4.88086 191.558 4.63184C190.977 4.38281 190.279 4.2583 189.466 4.2583H188.594V17.0332ZM204.675 0H218.446V4.38281H209.855V16.5601H217.475V20.9429H209.855V34.0664H218.446V38.4492H204.675V0ZM228.426 0H232.46L240.703 38.4492H235.573L234.129 30.9536H226.509L225.039 38.4492H220.059L228.426 0ZM233.382 26.9443L232.236 20.8184C231.473 16.6514 230.85 12.2021 230.369 7.4707C230.136 9.77832 229.837 12.1191 229.472 14.4932C229.107 16.8506 228.675 19.3574 228.177 22.0137L227.231 26.9443H233.382ZM245.329 0H249.762L253.148 15.6885C253.563 17.6475 253.937 19.6147 254.269 21.5903C254.617 23.5493 254.933 25.6079 255.215 27.7661C255.248 27.4839 255.273 27.2681 255.29 27.1187C255.306 26.9526 255.323 26.8364 255.34 26.77L256.062 22.3623L256.709 18.1787L257.282 15.4146L260.295 0H264.778L268.314 38.4492H263.358L262.487 25.4004C262.453 24.7363 262.42 24.1636 262.387 23.6821C262.37 23.2007 262.362 22.8022 262.362 22.4868L262.138 17.332L262.013 12.6006C262.013 12.5674 262.005 12.501 261.989 12.4014C261.989 12.2852 261.98 12.1357 261.964 11.9531L261.839 12.7251C261.706 13.6382 261.582 14.4351 261.466 15.1157C261.366 15.7964 261.275 16.3691 261.192 16.834L260.544 20.3452L260.295 21.665L257.058 38.4492H253.572L250.534 23.9561C250.118 22.0469 249.745 20.1128 249.413 18.1538C249.097 16.1782 248.807 14.1113 248.541 11.9531L247.047 38.4492H242.166L245.329 0Z" fill="black"/>
</svg>
