<svg width="494" height="679" viewBox="0 0 494 679" fill="none" xmlns="http://www.w3.org/2000/svg">
<path d="M5 673.769H488.026" stroke="black" stroke-width="10" stroke-linecap="round"/>
<mask id="path-2-outside-1_326_58" maskUnits="userSpaceOnUse" x="3.36322" y="296.987" width="95" height="109" fill="black">
<rect fill="white" x="3.36322" y="296.987" width="95" height="109"/>
<path d="M34.375 301.065C51.5579 300.838 65.9519 300.281 79.3692 313.187C89.324 322.761 94.3886 337.189 94.4121 350.868C94.4393 366.503 89.9237 379.018 79.1133 390.223C66.5332 401.594 53.2993 402.825 37.1231 402.138C31.1607 401.884 10.8448 403.705 7.28322 400.082C6.02762 395.067 6.42189 381.71 6.42189 375.676L6.44435 337.292L6.4258 315.722C6.42579 312.131 6.33497 308.319 6.5801 304.75C6.70543 302.93 7.90908 302.307 9.4131 301.198C9.92413 301.165 10.4363 301.143 10.9483 301.134C18.6999 301.004 26.6552 301.167 34.375 301.065ZM34.6182 306.706L12.7871 306.774L12.7627 396.225L35.4229 396.33C51.4765 396.372 63.9488 396.925 76.1699 384.443C99.4298 357.127 88.2333 307.668 48.0537 306.757C43.5738 306.656 39.1008 306.692 34.6182 306.706Z"/>
</mask>
<path d="M34.375 301.065C51.5579 300.838 65.9519 300.281 79.3692 313.187C89.324 322.761 94.3886 337.189 94.4121 350.868C94.4393 366.503 89.9237 379.018 79.1133 390.223C66.5332 401.594 53.2993 402.825 37.1231 402.138C31.1607 401.884 10.8448 403.705 7.28322 400.082C6.02762 395.067 6.42189 381.71 6.42189 375.676L6.44435 337.292L6.4258 315.722C6.42579 312.131 6.33497 308.319 6.5801 304.75C6.70543 302.93 7.90908 302.307 9.4131 301.198C9.92413 301.165 10.4363 301.143 10.9483 301.134C18.6999 301.004 26.6552 301.167 34.375 301.065ZM34.6182 306.706L12.7871 306.774L12.7627 396.225L35.4229 396.33C51.4765 396.372 63.9488 396.925 76.1699 384.443C99.4298 357.127 88.2333 307.668 48.0537 306.757C43.5738 306.656 39.1008 306.692 34.6182 306.706Z" fill="black"/>
<path fill-rule="evenodd" clip-rule="evenodd" d="M34.375 301.065L34.3354 298.065L34.3353 298.065L34.375 301.065ZM79.3692 313.187L77.2895 315.349L77.2895 315.349L79.3692 313.187ZM94.4121 350.868L91.4121 350.874V350.874L94.4121 350.868ZM79.1133 390.223L81.125 392.448L81.2011 392.38L81.2723 392.306L79.1133 390.223ZM37.1231 402.138L36.9957 405.135L36.9958 405.135L37.1231 402.138ZM7.28322 400.082L4.37304 400.811L4.57137 401.603L5.14386 402.185L7.28322 400.082ZM6.42189 375.676L3.42189 375.674V375.676H6.42189ZM6.44435 337.292L9.44436 337.294L9.44435 337.29L6.44435 337.292ZM6.4258 315.722L3.4258 315.722L3.4258 315.725L6.4258 315.722ZM6.5801 304.75L3.58718 304.544L3.58715 304.545L6.5801 304.75ZM9.4131 301.198L9.22407 298.203L8.34252 298.259L7.63179 298.784L9.4131 301.198ZM10.9483 301.134L10.898 298.134L10.8942 298.135L10.9483 301.134ZM34.6182 306.706L34.6089 303.706H34.6089L34.6182 306.706ZM12.7871 306.774L12.7779 303.774L9.78794 303.783L9.78713 306.773L12.7871 306.774ZM12.7627 396.225L9.76271 396.224L9.7619 399.211L12.7488 399.225L12.7627 396.225ZM35.4229 396.33L35.4089 399.33L35.4151 399.33L35.4229 396.33ZM76.1699 384.443L78.3136 386.541L78.3865 386.467L78.454 386.388L76.1699 384.443ZM48.0537 306.757L48.1217 303.758L48.1216 303.758L48.0537 306.757ZM34.375 301.065L34.4146 304.064C51.7776 303.835 64.8831 303.416 77.2895 315.349L79.3692 313.187L81.4489 311.025C67.0207 297.147 51.3383 297.841 34.3354 298.065L34.375 301.065ZM79.3692 313.187L77.2895 315.349C86.5525 324.258 91.3898 337.85 91.4121 350.874L94.4121 350.868L97.4121 350.863C97.3875 336.528 92.0956 321.265 81.4488 311.025L79.3692 313.187ZM94.4121 350.868L91.4121 350.874C91.4381 365.809 87.1714 377.55 76.9543 388.14L79.1133 390.223L81.2723 392.306C92.6761 380.485 97.4405 367.198 97.4121 350.863L94.4121 350.868ZM79.1133 390.223L77.1016 387.997C65.4163 398.56 53.1918 399.817 37.2503 399.141L37.1231 402.138L36.9958 405.135C53.4068 405.832 67.6502 404.629 81.125 392.448L79.1133 390.223ZM37.1231 402.138L37.2505 399.141C35.6268 399.072 33.1058 399.144 30.362 399.22C27.5552 399.299 24.3944 399.388 21.3169 399.374C18.223 399.359 15.319 399.24 13.0175 398.924C11.8655 398.766 10.9504 398.57 10.2773 398.349C9.54959 398.111 9.37451 397.93 9.42259 397.979L7.28322 400.082L5.14386 402.185C6.08232 403.14 7.3212 403.695 8.40953 404.051C9.55246 404.426 10.8555 404.684 12.2021 404.868C14.8977 405.238 18.1132 405.359 21.2888 405.374C24.4807 405.389 27.7395 405.296 30.5301 405.218C33.3838 405.138 35.6382 405.078 36.9957 405.135L37.1231 402.138ZM7.28322 400.082L10.1934 399.354C9.66628 397.248 9.4408 393.02 9.38148 388.224C9.32315 383.508 9.42189 378.802 9.42189 375.676H6.42189H3.42189C3.42189 378.584 3.3235 383.573 3.38194 388.298C3.43938 392.943 3.64457 397.901 4.37304 400.811L7.28322 400.082ZM6.42189 375.676L9.42189 375.678L9.44435 337.294L6.44435 337.292L3.44435 337.29L3.42189 375.674L6.42189 375.676ZM6.44435 337.292L9.44435 337.29L9.4258 315.719L6.4258 315.722L3.4258 315.725L3.44436 337.295L6.44435 337.292ZM6.4258 315.722L9.4258 315.722C9.42579 312.027 9.33724 308.389 9.57304 304.956L6.5801 304.75L3.58715 304.545C3.33269 308.249 3.42579 312.235 3.4258 315.722L6.4258 315.722ZM6.5801 304.75L9.57301 304.956C9.58177 304.829 9.60107 304.812 9.58527 304.846C9.5709 304.877 9.56673 304.865 9.63633 304.793C9.72082 304.705 9.86478 304.58 10.1447 304.371C10.282 304.269 10.4306 304.163 10.6111 304.033C10.7848 303.909 10.986 303.765 11.1944 303.611L9.4131 301.198L7.63179 298.784C7.12238 299.16 6.05916 299.861 5.32286 300.622C4.37498 301.602 3.70297 302.862 3.58718 304.544L6.5801 304.75ZM9.4131 301.198L9.60214 304.192C10.0731 304.162 10.54 304.142 11.0023 304.134L10.9483 301.134L10.8942 298.135C10.3326 298.145 9.77516 298.169 9.22407 298.203L9.4131 301.198ZM10.9483 301.134L10.9986 304.134C14.8406 304.069 18.7393 304.077 22.6646 304.089C26.5803 304.101 30.5255 304.116 34.4148 304.064L34.375 301.065L34.3353 298.065C30.5047 298.116 26.6123 298.101 22.6825 298.089C18.7624 298.077 14.8075 298.069 10.898 298.134L10.9483 301.134ZM34.6182 306.706L34.6089 303.706L12.7779 303.774L12.7871 306.774L12.7964 309.774L34.6274 309.706L34.6182 306.706ZM12.7871 306.774L9.78713 306.773L9.76271 396.224L12.7627 396.225L15.7627 396.226L15.7871 306.775L12.7871 306.774ZM12.7627 396.225L12.7488 399.225L35.4089 399.33L35.4229 396.33L35.4368 393.33L12.7767 393.225L12.7627 396.225ZM35.4229 396.33L35.4151 399.33C51.2926 399.371 65.0873 400.05 78.3136 386.541L76.1699 384.443L74.0263 382.344C62.8103 393.799 51.6605 393.372 35.4306 393.33L35.4229 396.33ZM76.1699 384.443L78.454 386.388C90.8001 371.889 93.9615 351.61 88.7678 334.812C83.5318 317.878 69.6915 304.247 48.1217 303.758L48.0537 306.757L47.9857 309.756C66.5956 310.178 78.4433 321.732 83.0355 336.584C87.6699 351.573 84.7996 369.681 73.8858 382.498L76.1699 384.443ZM48.0537 306.757L48.1216 303.758C43.5926 303.655 39.0688 303.693 34.6089 303.706L34.6182 306.706L34.6274 309.706C39.1329 309.692 43.555 309.656 47.9858 309.756L48.0537 306.757Z" fill="black" mask="url(#path-2-outside-1_326_58)"/>
<mask id="path-4-outside-2_326_58" maskUnits="userSpaceOnUse" x="120.862" y="527.17" width="104" height="104" fill="black">
<rect fill="white" x="120.862" y="527.17" width="104" height="104"/>
<path d="M169.856 530.246C196.633 528.762 219.571 549.214 221.16 575.994C222.749 602.77 202.391 625.794 175.626 627.486C148.715 629.186 125.547 608.689 123.949 581.766C122.352 554.838 142.934 531.744 169.856 530.246ZM215.252 576.599C213.983 553.128 194.007 535.087 170.535 536.211C146.857 537.345 128.626 557.539 129.906 581.217C131.186 604.895 151.488 623.005 175.15 621.576C198.607 620.166 216.521 600.07 215.252 576.599Z"/>
</mask>
<path d="M169.856 530.246C196.633 528.762 219.571 549.214 221.16 575.994C222.749 602.77 202.391 625.794 175.626 627.486C148.715 629.186 125.547 608.689 123.949 581.766C122.352 554.838 142.934 531.744 169.856 530.246ZM215.252 576.599C213.983 553.128 194.007 535.087 170.535 536.211C146.857 537.345 128.626 557.539 129.906 581.217C131.186 604.895 151.488 623.005 175.15 621.576C198.607 620.166 216.521 600.07 215.252 576.599Z" fill="black"/>
<path fill-rule="evenodd" clip-rule="evenodd" d="M169.856 530.246L169.69 527.251L169.69 527.251L169.856 530.246ZM221.16 575.994L218.165 576.172V576.172L221.16 575.994ZM175.626 627.486L175.815 630.48H175.815L175.626 627.486ZM123.949 581.766L120.954 581.943L120.954 581.944L123.949 581.766ZM215.252 576.599L212.256 576.761V576.761L215.252 576.599ZM170.535 536.211L170.679 539.208L170.679 539.208L170.535 536.211ZM129.906 581.217L126.911 581.379L126.911 581.379L129.906 581.217ZM175.15 621.576L174.97 618.582L174.97 618.582L175.15 621.576ZM169.856 530.246L170.022 533.242C195.149 531.849 216.674 551.041 218.165 576.172L221.16 575.994L224.155 575.817C222.468 547.388 198.118 525.675 169.69 527.251L169.856 530.246ZM221.16 575.994L218.165 576.172C219.656 601.299 200.552 622.904 175.437 624.492L175.626 627.486L175.815 630.48C204.23 628.683 225.841 604.241 224.155 575.817L221.16 575.994ZM175.626 627.486L175.437 624.492C150.185 626.088 128.443 606.854 126.944 581.588L123.949 581.766L120.954 581.944C122.651 610.525 147.246 632.285 175.815 630.48L175.626 627.486ZM123.949 581.766L126.944 581.588C125.445 556.318 144.759 534.647 170.023 533.242L169.856 530.246L169.69 527.251C141.108 528.841 119.259 553.358 120.954 581.943L123.949 581.766ZM215.252 576.599L218.247 576.437C216.889 551.319 195.512 532.011 170.392 533.215L170.535 536.211L170.679 539.208C192.502 538.162 211.076 554.937 212.256 576.761L215.252 576.599ZM170.535 536.211L170.392 533.215C145.051 534.428 125.541 556.04 126.911 581.379L129.906 581.217L132.902 581.055C131.712 559.038 148.663 540.262 170.679 539.208L170.535 536.211ZM129.906 581.217L126.911 581.379C128.28 606.718 150.007 626.1 175.331 624.571L175.15 621.576L174.97 618.582C152.97 619.91 134.092 603.072 132.902 581.055L129.906 581.217ZM175.15 621.576L175.33 624.571C200.435 623.061 219.606 601.554 218.247 576.437L215.252 576.599L212.256 576.761C213.437 598.586 196.779 617.27 174.97 618.582L175.15 621.576Z" fill="black" mask="url(#path-4-outside-2_326_58)"/>
<mask id="path-6-outside-3_326_58" maskUnits="userSpaceOnUse" x="95.6855" y="417.454" width="89" height="89" fill="black">
<rect fill="white" x="95.6855" y="417.454" width="89" height="89"/>
<path d="M134.597 421.885C156.849 418.644 177.526 434.031 180.816 456.285C184.107 478.534 168.77 499.253 146.533 502.595C124.224 505.946 103.432 490.546 100.13 468.223C96.829 445.9 112.273 425.139 134.597 421.885ZM175.671 456.663C172.58 437.212 154.301 423.959 134.859 427.07C115.446 430.177 102.22 448.43 105.306 467.85C108.392 487.273 126.624 500.521 146.043 497.456C165.492 494.386 178.762 476.114 175.671 456.663Z"/>
</mask>
<path d="M134.597 421.885C156.849 418.644 177.526 434.031 180.816 456.285C184.107 478.534 168.77 499.253 146.533 502.595C124.224 505.946 103.432 490.546 100.13 468.223C96.829 445.9 112.273 425.139 134.597 421.885ZM175.671 456.663C172.58 437.212 154.301 423.959 134.859 427.07C115.446 430.177 102.22 448.43 105.306 467.85C108.392 487.273 126.624 500.521 146.043 497.456C165.492 494.386 178.762 476.114 175.671 456.663Z" fill="black"/>
<path fill-rule="evenodd" clip-rule="evenodd" d="M134.597 421.885L134.164 418.916L134.164 418.916L134.597 421.885ZM180.816 456.285L177.849 456.724L177.849 456.724L180.816 456.285ZM146.533 502.595L146.979 505.561L146.979 505.561L146.533 502.595ZM100.13 468.223L97.1622 468.661L97.1622 468.662L100.13 468.223ZM175.671 456.663L172.708 457.134L172.708 457.134L175.671 456.663ZM134.859 427.07L134.385 424.108L134.385 424.108L134.859 427.07ZM105.306 467.85L108.269 467.379L108.269 467.379L105.306 467.85ZM146.043 497.456L146.511 500.419L146.511 500.419L146.043 497.456ZM134.597 421.885L135.029 424.853C155.644 421.851 174.8 436.106 177.849 456.724L180.816 456.285L183.784 455.846C180.252 431.956 158.055 415.437 134.164 418.916L134.597 421.885ZM180.816 456.285L177.849 456.724C180.897 477.338 166.688 496.532 146.087 499.628L146.533 502.595L146.979 505.561C170.853 501.974 187.316 479.731 183.784 455.846L180.816 456.285ZM146.533 502.595L146.088 499.628C125.42 502.732 106.157 488.466 103.098 467.784L100.13 468.223L97.1622 468.662C100.707 492.626 123.028 509.159 146.979 505.561L146.533 502.595ZM100.13 468.223L103.098 467.784C100.039 447.102 114.348 427.868 135.029 424.853L134.597 421.885L134.164 418.916C110.198 422.41 93.6186 444.697 97.1622 468.661L100.13 468.223ZM175.671 456.663L178.634 456.192C175.283 435.104 155.465 420.735 134.385 424.108L134.859 427.07L135.333 430.033C153.138 427.183 169.878 439.319 172.708 457.134L175.671 456.663ZM134.859 427.07L134.385 424.108C113.336 427.476 98.9972 447.267 102.343 468.32L105.306 467.85L108.269 467.379C105.442 449.594 117.556 432.878 135.333 430.033L134.859 427.07ZM105.306 467.85L102.343 468.32C105.689 489.379 125.456 503.742 146.511 500.419L146.043 497.456L145.575 494.493C127.792 497.299 111.095 485.168 108.269 467.379L105.306 467.85ZM146.043 497.456L146.511 500.419C167.598 497.091 181.985 477.28 178.634 456.192L175.671 456.663L172.708 457.134C175.539 474.949 163.385 491.682 145.575 494.493L146.043 497.456Z" fill="black" mask="url(#path-6-outside-3_326_58)"/>
<mask id="path-8-outside-4_326_58" maskUnits="userSpaceOnUse" x="405.481" y="296.704" width="86" height="109" fill="black">
<rect fill="white" x="405.481" y="296.704" width="86" height="109"/>
<path d="M433.771 300.741C447.969 300.713 461.36 299.831 473.53 308.642C481.05 314.058 486.096 322.253 487.543 331.407C490.593 350.486 478.935 366.019 460.24 369.702C458.226 370.098 456.213 370.417 454.18 370.73C441.425 371.113 427.596 370.882 414.781 370.896C414.726 376.455 416.97 401.806 411.155 402.604C408.736 401.631 408.583 400.566 408.56 398.045C408.487 390.68 408.524 383.304 408.519 375.934L408.51 331.77C408.51 322.929 408.38 312.108 408.671 303.075C408.703 302.071 410.178 301.345 411.008 300.797L433.771 300.741ZM435.334 306.712L414.781 306.773L414.762 365.051L435.388 365.111C448.448 365.134 461.941 365.978 472.728 357.183C478.373 351.643 481.561 346.001 481.58 337.843C481.548 329.8 478.322 322.099 472.613 316.435C461.932 305.979 448.941 306.684 435.334 306.712Z"/>
</mask>
<path d="M433.771 300.741C447.969 300.713 461.36 299.831 473.53 308.642C481.05 314.058 486.096 322.253 487.543 331.407C490.593 350.486 478.935 366.019 460.24 369.702C458.226 370.098 456.213 370.417 454.18 370.73C441.425 371.113 427.596 370.882 414.781 370.896C414.726 376.455 416.97 401.806 411.155 402.604C408.736 401.631 408.583 400.566 408.56 398.045C408.487 390.68 408.524 383.304 408.519 375.934L408.51 331.77C408.51 322.929 408.38 312.108 408.671 303.075C408.703 302.071 410.178 301.345 411.008 300.797L433.771 300.741ZM435.334 306.712L414.781 306.773L414.762 365.051L435.388 365.111C448.448 365.134 461.941 365.978 472.728 357.183C478.373 351.643 481.561 346.001 481.58 337.843C481.548 329.8 478.322 322.099 472.613 316.435C461.932 305.979 448.941 306.684 435.334 306.712Z" fill="black"/>
<path fill-rule="evenodd" clip-rule="evenodd" d="M433.771 300.741L433.765 297.741L433.764 297.741L433.771 300.741ZM473.53 308.642L471.771 311.072L471.777 311.077L473.53 308.642ZM487.543 331.407L484.579 331.875L484.58 331.88L487.543 331.407ZM460.24 369.702L460.819 372.645L460.82 372.645L460.24 369.702ZM454.18 370.73L454.27 373.729L454.455 373.723L454.638 373.695L454.18 370.73ZM414.781 370.896L414.778 367.896L411.811 367.899L411.781 370.866L414.781 370.896ZM411.155 402.604L410.036 405.388L410.774 405.684L411.563 405.576L411.155 402.604ZM408.56 398.045L411.56 398.018L411.56 398.015L408.56 398.045ZM408.519 375.934L405.519 375.935L405.519 375.936L408.519 375.934ZM408.51 331.77H405.51V331.771L408.51 331.77ZM408.671 303.075L405.672 302.978L405.672 302.978L408.671 303.075ZM411.008 300.797L411 297.797L410.103 297.8L409.354 298.294L411.008 300.797ZM435.334 306.712L435.328 303.712L435.325 303.712L435.334 306.712ZM414.781 306.773L414.772 303.773L411.782 303.782L411.781 306.772L414.781 306.773ZM414.762 365.051L411.762 365.05L411.761 368.043L414.754 368.051L414.762 365.051ZM435.388 365.111L435.38 368.111H435.383L435.388 365.111ZM472.728 357.183L474.624 359.508L474.731 359.421L474.83 359.324L472.728 357.183ZM481.58 337.843L484.58 337.85L484.58 337.841L484.58 337.831L481.58 337.843ZM472.613 316.435L474.726 314.305L474.719 314.298L474.712 314.291L472.613 316.435ZM433.771 300.741L433.777 303.741C448.309 303.712 460.556 302.953 471.771 311.072L473.53 308.642L475.289 306.212C462.164 296.71 447.628 297.713 433.765 297.741L433.771 300.741ZM473.53 308.642L471.777 311.077C478.648 316.025 483.258 323.513 484.58 331.875L487.543 331.407L490.506 330.938C488.934 320.994 483.453 312.091 475.283 306.208L473.53 308.642ZM487.543 331.407L484.58 331.88C487.36 349.269 476.868 363.368 459.66 366.758L460.24 369.702L460.82 372.645C481.002 368.669 493.826 351.703 490.505 330.933L487.543 331.407ZM460.24 369.702L459.661 366.758C457.714 367.141 455.754 367.452 453.723 367.765L454.18 370.73L454.638 373.695C456.671 373.381 458.739 373.055 460.819 372.645L460.24 369.702ZM454.18 370.73L454.09 367.731C441.392 368.112 427.67 367.882 414.778 367.896L414.781 370.896L414.784 373.896C427.522 373.882 441.458 374.113 454.27 373.729L454.18 370.73ZM414.781 370.896L411.781 370.866C411.766 372.346 411.902 375.118 412.011 378.189C412.122 381.345 412.213 384.988 412.129 388.463C412.044 391.979 411.782 395.142 411.247 397.405C410.977 398.549 410.683 399.258 410.445 399.633C410.217 399.992 410.279 399.696 410.747 399.632L411.155 402.604L411.563 405.576C413.484 405.312 414.749 404.049 415.511 402.848C416.264 401.662 416.749 400.216 417.087 398.784C417.769 395.895 418.039 392.224 418.127 388.608C418.216 384.95 418.119 381.164 418.007 377.978C417.892 374.707 417.768 372.225 417.781 370.926L414.781 370.896ZM411.155 402.604L412.274 399.821C411.817 399.637 411.63 399.512 411.574 399.468C411.552 399.45 411.61 399.498 411.655 399.589C411.683 399.646 411.647 399.608 411.615 399.333C411.58 399.042 411.566 398.649 411.56 398.018L408.56 398.045L405.56 398.073C405.571 399.194 405.57 400.803 406.264 402.222C407.08 403.893 408.528 404.781 410.036 405.388L411.155 402.604ZM408.56 398.045L411.56 398.015C411.487 390.668 411.524 383.325 411.519 375.932L408.519 375.934L405.519 375.936C405.524 383.283 405.487 390.691 405.56 398.075L408.56 398.045ZM408.519 375.934L411.519 375.933L411.51 331.769L408.51 331.77L405.51 331.771L405.519 375.935L408.519 375.934ZM408.51 331.77H411.51C411.51 322.871 411.381 312.14 411.669 303.171L408.671 303.075L405.672 302.978C405.38 312.076 405.51 322.987 405.51 331.77H408.51ZM408.671 303.075L411.669 303.171C411.653 303.673 411.456 304.002 411.373 304.118C411.3 304.219 411.275 304.218 411.397 304.122C411.509 304.033 411.666 303.927 411.895 303.782C412.011 303.709 412.116 303.645 412.251 303.561C412.374 303.485 412.519 303.394 412.661 303.3L411.008 300.797L409.354 298.294C409.246 298.366 408.273 298.945 407.684 299.408C407.128 299.846 405.735 301.029 405.672 302.978L408.671 303.075ZM411.008 300.797L411.015 303.797L433.779 303.741L433.771 300.741L433.764 297.741L411 297.797L411.008 300.797ZM435.334 306.712L435.325 303.712L414.772 303.773L414.781 306.773L414.79 309.773L435.343 309.712L435.334 306.712ZM414.781 306.773L411.781 306.772L411.762 365.05L414.762 365.051L417.762 365.052L417.781 306.774L414.781 306.773ZM414.762 365.051L414.754 368.051L435.38 368.111L435.388 365.111L435.397 362.111L414.771 362.051L414.762 365.051ZM435.388 365.111L435.383 368.111C448.037 368.133 462.826 369.127 474.624 359.508L472.728 357.183L470.833 354.858C461.056 362.829 448.859 362.135 435.394 362.111L435.388 365.111ZM472.728 357.183L474.83 359.324C480.882 353.384 484.559 347.017 484.58 337.85L481.58 337.843L478.58 337.836C478.564 344.985 475.865 349.901 470.627 355.042L472.728 357.183ZM481.58 337.843L484.58 337.831C484.544 328.992 481 320.529 474.726 314.305L472.613 316.435L470.5 318.565C475.645 323.668 478.551 330.607 478.58 337.855L481.58 337.843ZM472.613 316.435L474.712 314.291C462.992 302.818 448.596 303.685 435.328 303.712L435.334 306.712L435.34 309.712C449.286 309.684 460.871 309.139 470.514 318.579L472.613 316.435Z" fill="black" mask="url(#path-8-outside-4_326_58)"/>
<mask id="path-10-outside-5_326_58" maskUnits="userSpaceOnUse" x="378.985" y="524.647" width="107" height="107" fill="black">
<rect fill="white" x="378.985" y="524.647" width="107" height="107"/>
<path d="M431.983 528.647C433.956 528.956 434.822 529.067 435.804 530.92C438.421 535.861 440.923 540.866 443.453 545.854L458.019 574.474L473.668 605.223C476.571 610.934 479.566 616.627 482.267 622.435C483.345 624.748 483.345 627.163 480.428 627.707C476.843 626.384 474.668 620.715 473.027 617.392C470.207 611.676 467.36 605.993 464.484 600.305L434.2 600.332L401.62 600.313C397.772 607.532 392.312 619.669 387.847 626.993C387.404 627.721 385.718 627.615 384.894 627.573C383.318 626.499 383.843 627.043 382.985 625.338C383.448 622.799 429.182 531.519 431.983 528.647ZM432.891 538.41C423.55 556.589 413.315 576.304 404.454 594.695L433.739 594.736C442.628 594.732 452.66 594.953 461.457 594.648C455.162 581.825 448.784 569.044 442.328 556.304C440.872 553.4 434.517 540.235 432.891 538.41Z"/>
</mask>
<path d="M431.983 528.647C433.956 528.956 434.822 529.067 435.804 530.92C438.421 535.861 440.923 540.866 443.453 545.854L458.019 574.474L473.668 605.223C476.571 610.934 479.566 616.627 482.267 622.435C483.345 624.748 483.345 627.163 480.428 627.707C476.843 626.384 474.668 620.715 473.027 617.392C470.207 611.676 467.36 605.993 464.484 600.305L434.2 600.332L401.62 600.313C397.772 607.532 392.312 619.669 387.847 626.993C387.404 627.721 385.718 627.615 384.894 627.573C383.318 626.499 383.843 627.043 382.985 625.338C383.448 622.799 429.182 531.519 431.983 528.647ZM432.891 538.41C423.55 556.589 413.315 576.304 404.454 594.695L433.739 594.736C442.628 594.732 452.66 594.953 461.457 594.648C455.162 581.825 448.784 569.044 442.328 556.304C440.872 553.4 434.517 540.235 432.891 538.41Z" fill="black"/>
<path d="M431.983 528.647L432.448 525.684L430.918 525.444L429.836 526.553L431.983 528.647ZM435.804 530.92L438.455 529.516L438.455 529.516L435.804 530.92ZM443.453 545.854L440.778 547.211L440.78 547.214L443.453 545.854ZM458.019 574.474L455.345 575.834L455.345 575.834L458.019 574.474ZM473.668 605.223L476.342 603.863L476.342 603.862L473.668 605.223ZM482.267 622.435L479.546 623.699L479.547 623.702L482.267 622.435ZM480.428 627.707L479.389 630.521L480.165 630.808L480.978 630.656L480.428 627.707ZM473.027 617.392L470.337 618.719L470.337 618.719L473.027 617.392ZM464.484 600.305L467.162 598.951L466.329 597.303L464.482 597.305L464.484 600.305ZM434.2 600.332L434.199 603.332H434.203L434.2 600.332ZM401.62 600.313L401.622 597.313L399.82 597.312L398.973 598.902L401.62 600.313ZM387.847 626.993L385.285 625.432L385.284 625.434L387.847 626.993ZM384.894 627.573L383.204 630.052L383.901 630.527L384.743 630.569L384.894 627.573ZM382.985 625.338L380.034 624.8L379.854 625.788L380.305 626.685L382.985 625.338ZM432.891 538.41L435.13 536.414L432.221 533.149L430.222 537.039L432.891 538.41ZM404.454 594.695L401.752 593.393L399.682 597.689L404.45 597.695L404.454 594.695ZM433.739 594.736L433.735 597.736H433.741L433.739 594.736ZM461.457 594.648L461.561 597.647L466.192 597.486L464.15 593.326L461.457 594.648ZM442.328 556.304L439.646 557.648L439.652 557.66L442.328 556.304ZM431.983 528.647L431.519 531.611C432.05 531.694 432.365 531.744 432.626 531.801C432.865 531.854 432.921 531.887 432.905 531.879C432.864 531.858 432.836 531.829 432.848 531.842C432.879 531.876 432.982 532.002 433.153 532.324L435.804 530.92L438.455 529.516C437.797 528.274 436.956 527.207 435.625 526.53C434.517 525.967 433.252 525.81 432.448 525.684L431.983 528.647ZM435.804 530.92L433.153 532.324C435.754 537.234 438.237 542.202 440.778 547.211L443.453 545.854L446.129 544.496C443.61 539.531 441.088 534.488 438.455 529.516L435.804 530.92ZM443.453 545.854L440.78 547.214L455.345 575.834L458.019 574.474L460.692 573.113L446.127 544.493L443.453 545.854ZM458.019 574.474L455.345 575.834L470.994 606.583L473.668 605.223L476.342 603.862L460.692 573.113L458.019 574.474ZM473.668 605.223L470.994 606.582C473.923 612.344 476.875 617.955 479.546 623.699L482.267 622.435L484.987 621.17C482.257 615.299 479.22 609.524 476.342 603.863L473.668 605.223ZM482.267 622.435L479.547 623.702C479.737 624.109 479.847 624.454 479.897 624.716C479.948 624.985 479.918 625.076 479.928 625.037C479.946 624.958 480.015 624.813 480.139 624.707C480.239 624.62 480.221 624.694 479.878 624.758L480.428 627.707L480.978 630.656C482.093 630.448 483.169 630.016 484.056 629.252C484.966 628.467 485.514 627.472 485.763 626.433C486.225 624.502 485.638 622.566 484.986 621.167L482.267 622.435ZM480.428 627.707L481.467 624.893C480.703 624.611 479.714 623.664 478.572 621.758C477.456 619.895 476.647 617.947 475.718 616.064L473.027 617.392L470.337 618.719C471.048 620.159 472.147 622.708 473.425 624.841C474.677 626.931 476.568 629.48 479.389 630.521L480.428 627.707ZM473.027 617.392L475.718 616.064C472.892 610.338 470.04 604.645 467.162 598.951L464.484 600.305L461.807 601.658C464.679 607.34 467.522 613.014 470.337 618.719L473.027 617.392ZM464.484 600.305L464.482 597.305L434.198 597.332L434.2 600.332L434.203 603.332L464.487 603.305L464.484 600.305ZM434.2 600.332L434.202 597.332L401.622 597.313L401.62 600.313L401.618 603.313L434.199 603.332L434.2 600.332ZM401.62 600.313L398.973 598.902C397.021 602.564 394.654 607.485 392.277 612.282C389.869 617.14 387.441 621.896 385.285 625.432L387.847 626.993L390.408 628.555C392.718 624.766 395.252 619.791 397.653 614.946C400.085 610.038 402.372 605.281 404.268 601.725L401.62 600.313ZM387.847 626.993L385.284 625.434C385.638 624.852 386.107 624.648 386.216 624.605C386.336 624.558 386.358 624.572 386.209 624.587C386.079 624.6 385.905 624.606 385.688 624.603C385.47 624.599 385.269 624.588 385.044 624.577L384.894 627.573L384.743 630.569C385.096 630.587 385.967 630.643 386.818 630.556C387.249 630.512 387.826 630.419 388.413 630.188C388.988 629.962 389.835 629.498 390.41 628.552L387.847 626.993ZM384.894 627.573L386.583 625.094C386.369 624.948 386.191 624.83 386.048 624.735C385.894 624.634 385.81 624.579 385.741 624.532C385.588 624.427 385.788 624.543 385.992 624.793C386.175 625.017 386.251 625.22 386.142 624.987C386.061 624.813 385.906 624.468 385.666 623.991L382.985 625.338L380.305 626.685C380.494 627.061 380.594 627.287 380.705 627.524C380.788 627.702 380.992 628.156 381.348 628.592C381.725 629.053 382.143 629.341 382.361 629.49C382.478 629.569 382.619 629.661 382.741 629.742C382.874 629.83 383.024 629.93 383.204 630.052L384.894 627.573ZM382.985 625.338L385.937 625.876C385.885 626.159 385.808 626.295 385.939 625.972C386.02 625.772 386.146 625.479 386.321 625.088C386.668 624.31 387.173 623.222 387.82 621.856C389.111 619.13 390.94 615.359 393.136 610.884C397.526 601.937 403.369 590.209 409.286 578.468C415.204 566.725 421.191 554.98 425.871 545.996C428.212 541.502 430.219 537.712 431.724 534.963C432.478 533.586 433.095 532.491 433.559 531.706C433.792 531.311 433.973 531.018 434.106 530.817C434.281 530.55 434.269 530.601 434.131 530.742L431.983 528.647L429.836 526.553C429.523 526.874 429.252 527.277 429.09 527.524C428.885 527.836 428.65 528.219 428.394 528.652C427.88 529.521 427.227 530.683 426.461 532.082C424.927 534.885 422.898 538.717 420.55 543.224C415.852 552.242 409.852 564.013 403.928 575.767C398.004 587.522 392.152 599.27 387.749 608.241C385.549 612.725 383.707 616.525 382.398 619.287C381.744 620.667 381.217 621.803 380.842 622.642C380.655 623.059 380.498 623.424 380.378 623.719C380.309 623.89 380.115 624.358 380.034 624.8L382.985 625.338ZM432.891 538.41L430.222 537.039C420.892 555.199 410.634 574.958 401.752 593.393L404.454 594.695L407.157 595.998C415.997 577.65 426.208 557.98 435.559 539.781L432.891 538.41ZM404.454 594.695L404.45 597.695L433.735 597.736L433.739 594.736L433.744 591.736L404.458 591.695L404.454 594.695ZM433.739 594.736L433.741 597.736C442.527 597.732 452.698 597.953 461.561 597.647L461.457 594.648L461.353 591.65C452.623 591.952 442.729 591.732 433.738 591.736L433.739 594.736ZM461.457 594.648L464.15 593.326C457.85 580.492 451.466 567.699 445.004 554.948L442.328 556.304L439.652 557.66C446.102 570.389 452.475 583.159 458.764 595.97L461.457 594.648ZM442.328 556.304L445.01 554.959C444.318 553.579 442.316 549.464 440.348 545.593C439.355 543.641 438.345 541.699 437.474 540.119C437.039 539.33 436.626 538.609 436.259 538.012C435.924 537.467 435.527 536.859 435.13 536.414L432.891 538.41L430.651 540.406C430.634 540.387 430.674 540.432 430.78 540.584C430.877 540.725 430.999 540.914 431.148 541.155C431.446 541.639 431.807 542.269 432.22 543.017C433.043 544.509 434.018 546.382 434.999 548.312C436.979 552.206 438.882 556.124 439.646 557.648L442.328 556.304Z" fill="black" mask="url(#path-10-outside-5_326_58)"/>
<path d="M187.821 299.348C196.392 299.345 204.838 299.387 211.324 299.502C214.566 299.56 217.331 299.636 219.381 299.736C220.404 299.785 221.265 299.841 221.926 299.905C222.255 299.936 222.551 299.971 222.801 300.012C222.963 300.038 223.168 300.076 223.369 300.137L223.566 300.206L223.824 300.316C224.414 300.577 224.93 300.902 225.354 301.404C225.798 301.931 226.045 302.553 226.257 303.096L226.424 303.525L226.322 303.974C226.163 304.675 226.038 305.283 225.746 305.828C225.465 306.355 225.033 306.809 224.568 307.332L224.327 307.604L223.988 307.735C223.74 307.831 223.46 307.884 223.248 307.917C223.007 307.955 222.722 307.988 222.406 308.018C221.773 308.077 220.951 308.129 219.978 308.173C218.027 308.262 215.403 308.326 212.327 308.372C206.172 308.465 198.159 308.483 189.997 308.466C175.186 308.436 160.024 308.293 154.294 308.262L154.261 347.705L214.211 347.562L214.223 347.561V347.562C216.653 347.575 220.042 347.557 222.393 349.956L222.697 350.268L222.788 350.694C222.866 351.058 222.946 351.4 222.987 351.636C223.036 351.912 223.075 352.249 223.003 352.642C222.941 352.977 222.807 353.277 222.727 353.462C222.63 353.684 222.511 353.951 222.353 354.363L222.206 354.743L221.887 354.997C221.372 355.406 220.708 355.651 220.1 355.818C219.459 355.993 218.719 356.121 217.936 356.218C216.368 356.411 214.492 356.493 212.624 356.52C208.978 356.571 204.904 356.406 203.404 356.406H203.403L170.799 356.392L154.287 356.401L154.298 394.583C160.148 394.549 175.297 394.373 190.066 394.342C198.172 394.325 206.118 394.353 212.223 394.476C215.273 394.537 217.878 394.622 219.819 394.738C220.788 394.795 221.612 394.862 222.251 394.94C222.569 394.979 222.862 395.023 223.113 395.074C223.333 395.12 223.638 395.192 223.911 395.327L223.912 395.328C224.542 395.641 225.084 395.994 225.532 396.518C225.965 397.023 226.226 397.594 226.455 398.159L226.673 398.697L226.473 399.24C225.26 402.534 221.925 403.472 219.065 403.738C217.575 403.876 216.028 403.852 214.628 403.797C213.179 403.741 211.965 403.658 210.943 403.656H192.462L182.464 403.68C172.456 403.709 162.423 403.732 152.415 403.541H152.414C150.667 403.507 148.855 403.224 147.438 402.247C145.916 401.198 145.097 399.528 145.037 397.306C144.851 390.361 144.925 383.388 144.927 376.482L144.947 337.883L144.929 315.336C144.926 312 144.826 308.12 145.083 304.661V304.66C145.278 302.045 147.363 300.814 148.565 299.955L148.932 299.694L149.381 299.676C152.994 299.54 170.692 299.354 187.821 299.348Z" fill="black" stroke="black" stroke-width="3"/>
<path d="M347.61 299.498C348.829 299.457 350.507 299.3 351.99 299.454C353.452 299.606 355.021 300.075 356.227 301.391L356.463 301.666L356.684 301.939L356.76 302.283C356.901 302.916 357.072 303.553 357.044 304.163C357.015 304.813 356.769 305.413 356.526 306.049L356.399 306.381L356.137 306.62C355.743 306.98 355.264 307.451 354.662 307.753C353.998 308.086 353.293 308.177 352.466 308.198L352.467 308.199C345.049 308.384 337.231 308.28 329.873 308.263H285.258L285.266 347.755C303.745 347.706 332.484 347.21 351.205 348.218H351.204C352.484 348.284 353.138 349.322 353.396 349.809C353.697 350.381 353.889 351.045 353.977 351.317L354.118 351.758L353.988 352.202C353.925 352.412 353.882 352.589 353.833 352.781C353.788 352.96 353.731 353.187 353.651 353.414C353.466 353.935 353.188 354.377 352.726 354.839L352.727 354.84C352.039 355.56 350.913 356.439 349.423 356.447H349.418C344.826 356.456 340.167 356.425 335.592 356.425H335.591L302.409 356.415L285.256 356.436L285.261 394.59L336.103 394.577C341.035 394.572 347.819 394.299 352.907 394.64H352.908C354.002 394.714 354.877 395.338 355.468 395.908C356.007 396.428 356.453 397.04 356.785 397.594L356.921 397.827L357.08 398.109L357.108 398.433C357.141 398.824 357.176 399.064 357.201 399.265C357.22 399.411 357.274 399.766 357.2 400.146C357.123 400.544 356.931 400.851 356.848 400.988C356.739 401.169 356.618 401.359 356.429 401.696L356.267 401.985L355.999 402.178C354.775 403.063 353.56 403.513 351.966 403.531L351.967 403.532C328.673 403.79 305.323 403.809 282.03 403.51C280.893 403.495 279.939 403.243 279.082 402.727C278.264 402.234 277.625 401.552 277.043 400.854L276.87 400.646L276.78 400.392C276.142 398.58 275.933 396.141 275.943 394.345V394.344C276.105 364.769 275.641 334.993 276.127 305.393C276.173 302.634 277.86 301.142 279.456 299.975L279.826 299.705L280.283 299.687C291.437 299.257 302.737 299.396 314 299.549C325.276 299.701 336.514 299.867 347.61 299.498Z" fill="black" stroke="black" stroke-width="3"/>
<path d="M303.227 528.479C309.778 528 316.36 528.716 322.655 530.592L323.206 530.762C326.126 531.697 331.504 533.908 336.031 536.804C338.439 538.345 340.712 540.145 342.226 542.132C343.747 544.128 344.651 546.526 343.807 549.065L343.612 549.651L343.061 549.93C340.375 551.29 337.884 549.995 336.116 548.654C335.202 547.961 334.34 547.15 333.59 546.445C332.807 545.707 332.174 545.113 331.618 544.709L330.824 544.153C322.552 538.516 312.083 536.601 302.097 537.588C279.713 539.8 264.209 562.973 266.951 584.921L267.096 585.948C268.725 596.525 274.413 606.068 282.974 612.535L282.984 612.542L283.789 613.143C292.17 619.246 302.603 621.875 312.9 620.451C323.276 619 331.888 614.162 338.275 605.958C338.307 603.733 338.427 598.841 338.424 594.034C338.423 591.434 338.384 588.903 338.276 586.893C338.222 585.886 338.152 585.034 338.064 584.38C338.047 584.251 338.027 584.132 338.009 584.024L337.676 583.98C336.463 583.978 334.154 584.023 331.279 584.066C328.345 584.11 324.851 584.151 321.432 584.135C318.019 584.119 314.655 584.046 311.984 583.857C310.652 583.763 309.458 583.638 308.505 583.469C308.028 583.385 307.582 583.286 307.194 583.163C306.835 583.049 306.398 582.877 306.037 582.59L305.776 582.382L305.627 582.083C305.437 581.701 305.302 581.462 305.189 581.254C305.099 581.089 304.928 580.786 304.845 580.427C304.752 580.018 304.795 579.663 304.833 579.419C304.859 579.245 304.938 578.833 304.99 578.523L305.063 578.081L305.368 577.75C306.104 576.955 307.15 576.349 308.143 575.954C309.131 575.56 310.269 575.296 311.26 575.355H311.264C313.844 575.515 321.291 575.244 328.737 575.197C332.41 575.173 336.05 575.206 338.981 575.381C340.444 575.469 341.763 575.593 342.836 575.771C343.766 575.925 344.736 576.152 345.425 576.566L345.559 576.651L345.882 576.869L346.058 577.216C346.669 578.422 346.897 580.246 346.979 581.819C347.065 583.464 347.003 585.149 346.879 586.271C346.673 588.133 346.715 590.291 346.823 592.655C346.929 594.978 347.099 597.522 347.123 599.99C347.169 604.874 346.664 610.064 343.511 613.728C335.785 622.708 323.364 628.234 311.845 629.507L311.835 629.508C298.923 630.845 286.013 626.964 275.98 618.721H275.979C265.74 610.303 259.296 598.135 258.088 584.931V584.929C256.805 570.72 261.139 556.571 270.161 545.518L270.166 545.513L270.171 545.507C279.024 534.87 289.674 529.759 303.196 528.481L303.227 528.479Z" fill="black" stroke="black" stroke-width="3"/>
<path d="M427.122 421.044C445.54 420.593 464.455 421.195 482.799 421.053L483.143 421.063C483.924 421.113 484.575 421.356 485.14 421.755C485.566 422.056 485.921 422.438 486.206 422.767L486.468 423.073L486.775 423.434L486.82 423.904C486.858 424.308 486.895 424.548 486.922 424.763C486.943 424.926 486.997 425.286 486.914 425.679C486.831 426.066 486.639 426.375 486.557 426.512C486.448 426.695 486.318 426.906 486.122 427.264L485.971 427.541L485.72 427.734C485.18 428.15 484.441 428.372 483.804 428.516C483.11 428.673 482.282 428.788 481.39 428.875C479.601 429.049 477.41 429.121 475.209 429.142C470.899 429.183 466.108 429.022 464.452 429.022L430.427 429.018L430.414 458.943C435.097 458.874 446.323 458.699 457.122 458.677C463.247 458.664 469.252 458.701 473.857 458.836C476.156 458.903 478.128 458.996 479.599 459.121C480.332 459.184 480.969 459.257 481.472 459.345C481.722 459.389 481.968 459.441 482.188 459.506C482.37 459.56 482.688 459.664 482.972 459.877H482.971C483.942 460.602 484.31 461.807 484.35 462.693L484.351 462.706L484.353 462.886C484.344 463.796 484.022 464.879 483.225 465.628V465.629C482.129 466.659 480.661 466.845 479.692 466.89L479.693 466.891C476.098 467.062 472.113 466.787 468.694 466.782L442.496 466.796H442.493L430.41 466.783L430.422 495.917C438.721 495.99 447.057 495.948 455.408 495.909C464.252 495.868 473.112 495.831 481.935 495.942H481.937C482.746 495.953 483.555 495.976 484.318 496.242C485.143 496.53 485.77 497.04 486.398 497.711L486.69 498.023L486.774 498.441C486.854 498.836 486.902 499.015 486.955 499.252C486.994 499.431 487.08 499.806 486.996 500.243C486.924 500.617 486.737 500.94 486.677 501.053C486.584 501.229 486.462 501.454 486.292 501.822L486.154 502.121L485.904 502.335C485.575 502.615 485.081 503.021 484.525 503.361C484.008 503.677 483.231 504.067 482.369 504.068H482.365C465.487 504.026 448.477 504.122 431.573 504.063V504.062C430.646 504.059 429.14 504.029 427.68 503.815C426.95 503.707 426.188 503.548 425.497 503.304C424.826 503.067 424.09 502.706 423.539 502.118L423.264 501.825L423.173 501.435C421.853 495.797 421.826 487.468 422 479.233C422.177 470.882 422.562 462.584 422.156 456.679C421.997 454.393 421.882 447.245 421.922 440.265C421.943 436.764 422.002 433.28 422.116 430.442C422.172 429.023 422.243 427.754 422.331 426.719C422.415 425.717 422.522 424.836 422.675 424.251L422.752 423.959L422.936 423.72C423.485 423.003 423.938 422.455 424.579 422.04C425.152 421.669 425.854 421.434 426.627 421.141L426.867 421.051L427.122 421.044Z" fill="black" stroke="black" stroke-width="3"/>
<path d="M348.106 420.612C354.277 419.865 361.894 420.056 369.006 421.762C376.097 423.464 382.876 426.719 387.12 432.26C387.863 433.23 388.901 434.977 389.452 436.751C389.726 437.636 389.916 438.642 389.809 439.612C389.697 440.627 389.246 441.657 388.225 442.351L387.813 442.631L387.316 442.609C384.357 442.479 382.516 440.161 381.19 438.251C380.437 437.166 379.888 436.267 379.189 435.311C378.527 434.406 377.901 433.705 377.245 433.245L377.193 433.208L377.144 433.168C374.595 431.038 370.075 429.44 364.553 428.652C359.083 427.872 352.845 427.917 347.045 428.892C341.224 429.871 335.984 431.762 332.396 434.563C328.871 437.315 326.972 440.899 327.552 445.514C327.886 448.172 328.975 450.16 330.628 451.717C332.312 453.301 334.642 454.493 337.521 455.403C343.323 457.237 350.866 457.792 358.688 458.475C366.388 459.148 374.355 459.944 380.584 462.385C383.724 463.614 386.508 465.292 388.614 467.654C390.736 470.035 392.102 473.036 392.504 476.784C393.067 482.021 392.305 486.382 390.505 489.989C388.708 493.592 385.926 496.339 382.611 498.433C376.033 502.589 367.215 504.265 359.224 505.042L359.168 505.048L359.114 505.049C352.416 505.205 343.761 504.765 336.052 502.354C328.346 499.945 321.333 495.477 318.416 487.416L318.186 486.765C317.965 486.115 317.784 485.465 317.742 484.794C317.681 483.823 317.909 482.936 318.372 481.937L318.633 481.371L319.219 481.158L320.194 480.802L320.57 480.666L320.964 480.734C323.989 481.26 325.329 483.488 326.389 485.387C327.501 487.38 328.429 489.244 330.448 490.627L330.449 490.628C340.654 497.629 351.104 497.845 362.989 497.024C375.562 496.158 383.331 488.86 384.58 482.011C385.195 478.634 384.271 475.264 381.468 472.551C378.627 469.8 373.732 467.616 366.251 467.008L366.245 467.007H366.237C361.058 466.533 353.237 466.131 345.777 465.08C342.031 464.552 338.317 463.854 334.999 462.885C331.699 461.92 328.695 460.66 326.434 458.959V458.96C322.559 456.052 320.027 451.699 319.419 446.889V446.888C318.718 441.657 320.128 436.362 323.34 432.173L323.348 432.162C329.284 424.565 339.475 421.73 348.094 420.614L348.106 420.612Z" fill="black" stroke="black" stroke-width="3"/>
<path d="M5.22638 420.632C5.91409 420.831 6.54571 420.989 7.08478 421.254C7.54157 421.478 7.9219 421.766 8.3299 422.133L8.75079 422.528L8.99005 422.758L9.11017 423.068C9.35802 423.71 9.50003 424.735 9.60333 425.833C9.7131 426.999 9.79472 428.462 9.85529 430.115C9.97653 433.424 10.0154 437.564 10.0125 441.758C10.0076 448.938 9.88335 456.382 9.83673 460.085L59.4276 460.081C59.3731 449.688 59.2752 439.068 59.3553 428.663C59.3641 427.529 59.5257 426.202 59.9217 424.939C60.3135 423.689 60.9729 422.385 62.0594 421.44L62.4354 421.113L62.9324 421.076C63.1909 421.057 63.5878 421.018 63.744 421.008C63.9781 420.995 64.3506 420.984 64.7645 421.143C65.1109 421.277 65.3881 421.5 65.5174 421.599C65.6042 421.666 65.6973 421.739 65.8084 421.823L66.2098 422.116L66.4744 422.303L66.6375 422.583C66.9775 423.162 67.154 424.005 67.2733 424.772C67.4047 425.617 67.5042 426.657 67.5809 427.81C67.7345 430.121 67.8027 432.992 67.826 435.891C67.8721 441.643 67.7409 447.759 67.742 449.72V449.723L67.6688 501.205L67.6678 501.89L67.1483 502.339C66.4053 502.98 65.6116 503.623 64.6209 503.859C63.573 504.108 62.5744 503.851 61.5447 503.457L61.201 503.325L60.9578 503.049C60.617 502.664 60.4215 502.175 60.2967 501.789C60.1594 501.364 60.0481 500.868 59.9539 500.334C59.7651 499.262 59.6243 497.903 59.5174 496.372C59.3031 493.302 59.2169 489.401 59.1971 485.439C59.1635 478.725 59.3202 471.644 59.3738 468.109L9.90021 468.091L9.88263 488.082C9.89687 489.47 10.2491 493.408 9.98907 496.748C9.85677 498.446 9.55896 500.217 8.88556 501.616C8.18767 503.066 6.95737 504.331 4.99396 504.389L4.4588 504.405L4.03497 504.079C3.4493 503.628 3.05221 503.005 2.7713 502.394C2.48543 501.772 2.27498 501.064 2.11603 500.331C1.79842 498.866 1.64728 497.13 1.5799 495.419C1.44715 492.047 1.63542 488.337 1.63458 486.818L1.62579 463.185V463.184L1.63263 438.515V438.514C1.63412 436.59 1.44104 433.052 1.55353 429.853C1.6111 428.216 1.74832 426.559 2.04279 425.085C2.33096 423.641 2.79986 422.208 3.62872 421.149L4.25275 420.352L5.22638 420.632Z" fill="black" stroke="black" stroke-width="3"/>
<path d="M4.7489 528.586C5.77272 528.619 6.73903 528.685 7.6532 529.063C8.60528 529.456 9.34578 530.115 10.1093 531.011V531.012C13.7846 535.327 17.1023 540.058 20.4384 544.536L21.87 546.438L21.871 546.439C30.4651 557.721 38.4869 569.206 47.1298 580.306C51.3577 574.875 55.4377 569.258 59.5331 563.614C64.002 557.454 68.4926 551.263 73.1932 545.303L73.4657 544.948C74.1275 544.063 74.9777 542.788 75.994 541.28C77.1344 539.587 78.4509 537.653 79.8329 535.847C81.2068 534.051 82.6938 532.318 84.1903 531.054C85.6239 529.844 87.3793 528.795 89.2313 528.995L89.6044 529.036L89.9149 529.246C90.26 529.482 90.481 529.616 90.661 529.728C90.7956 529.812 91.0987 529.991 91.3456 530.277C91.6053 530.578 91.732 530.91 91.7968 531.074C91.8789 531.281 91.962 531.507 92.1249 531.886L92.2714 532.228L92.2411 532.6C92.207 533.017 92.0553 533.431 91.9188 533.752C91.7682 534.107 91.5674 534.501 91.3358 534.918C90.8714 535.755 90.2326 536.774 89.4843 537.9C87.9844 540.156 85.9865 542.933 83.9237 545.722C79.8225 551.267 75.3248 557.043 74.0009 558.81L74.0018 558.811L51.6376 588.69C51.483 599.329 51.6883 609.949 51.66 620.645C51.6577 621.499 51.7039 622.177 51.7245 622.942C51.7435 623.646 51.7394 624.415 51.5682 625.151C51.3859 625.935 51.0185 626.671 50.3544 627.311C49.7183 627.924 48.8815 628.38 47.8671 628.751L47.494 628.888L47.1034 628.823C45.7893 628.602 44.6 628.165 43.7665 627.17C42.9559 626.203 42.6987 624.959 42.6083 623.668V623.667C42.3257 619.615 42.4658 615.421 42.4872 611.484V611.471H42.4882C42.5922 603.846 42.585 596.217 42.4716 588.592C39.4127 584.457 30.0888 572.474 21.1405 560.69C16.5304 554.619 12.0287 548.61 8.56726 543.795C6.83753 541.389 5.35887 539.269 4.25378 537.582C3.19181 535.961 2.363 534.577 2.07117 533.723L1.99109 533.491L1.99011 533.245C1.98577 532.37 2.05935 531.679 2.3739 530.976C2.63166 530.4 3.07453 529.815 3.45789 529.246L3.92175 528.56L4.7489 528.586Z" fill="black" stroke="black" stroke-width="3"/>
<path d="M216.536 419.785C216.796 419.825 217.085 419.871 217.377 419.926L217.378 419.925C217.38 419.926 217.382 419.927 217.384 419.927C217.385 419.928 217.386 419.927 217.388 419.927L217.387 419.928C217.911 420.026 218.692 420.224 219.392 420.591C220.02 420.92 221.07 421.647 221.163 422.979L221.165 423.005L221.166 423.031C221.675 437.551 221.764 451.604 221.495 466.282C221.25 479.651 228.195 489.217 237.742 493.697C247.326 498.193 259.621 497.602 270.078 490.364C275.678 486.486 278.39 481.321 279.71 475.401C281.046 469.407 280.936 462.742 280.916 455.888L280.787 435.465C280.771 433.919 280.554 430.769 280.676 427.959C280.738 426.527 280.888 425.063 281.222 423.796C281.543 422.575 282.101 421.27 283.177 420.469L283.575 420.172H284.072C284.576 420.172 284.751 420.162 285.063 420.16C285.295 420.158 285.633 420.16 285.998 420.272C286.35 420.381 286.63 420.565 286.804 420.677C287.009 420.81 287.234 420.963 287.613 421.194L287.877 421.354L288.057 421.606C289.419 423.524 289.063 425.426 289.033 426.921L289.063 454.624V454.625C289.065 461.391 289.457 468.866 288.088 475.815C284.27 495.383 267.177 504.866 250.522 504.601C233.864 504.336 217.156 494.31 214.139 474.492L214.135 474.465L214.132 474.439C213.435 468.458 213.371 462.448 213.426 456.492C213.477 450.881 213.633 445.351 213.486 439.832L213.452 438.728C213.384 436.735 213.191 433.053 213.284 429.519C213.331 427.75 213.45 425.972 213.702 424.423C213.945 422.931 214.344 421.433 215.086 420.395L215.623 419.643L216.536 419.785Z" fill="black" stroke="black" stroke-width="3"/>
<path d="M425.247 245.247H61.1409L243.194 11.3945L425.247 245.247Z" stroke="black" stroke-width="14"/>
<circle cx="245.076" cy="154.773" r="69.79" stroke="black" stroke-width="14"/>
</svg>
